<svg width="333" height="54" viewBox="0 0 333 54" fill="none" xmlns="http://www.w3.org/2000/svg">
<g clip-path="url(#clip0_396_55)">
<path d="M78.0042 2.14941C74.8509 9.35561 71.8948 16.1139 68.9361 22.8711C67.9114 25.2114 66.9841 27.6012 65.8338 29.8784C60.9955 39.4562 53.4857 45.6496 42.8173 47.7543C42.4117 47.8344 41.9963 47.8771 41.5834 47.9029C41.3141 47.9197 41.041 47.8745 40.5957 47.8459C40.7812 47.2623 40.8947 46.7504 41.101 46.2791C44.8659 37.6762 48.4836 29.0043 52.4582 20.499C56.8005 11.2067 64.0602 5.18975 74.0712 2.64456C75.1876 2.36072 76.3727 2.34646 78.0042 2.14941Z" fill="#FFFFFF"/>
<path d="M0 47.975C4.53387 37.7761 8.53273 27.8314 13.3308 18.2879C17.17 10.6516 23.7471 5.66506 31.986 3.10715C33.6688 2.58467 35.4628 2.41964 37.6803 2C37.1898 3.2231 36.9152 3.96448 36.599 4.68767C33.0296 12.8497 29.5938 21.0737 25.8444 29.1524C21.1871 39.1873 13.4675 45.5833 2.46956 47.7568C1.80525 47.8881 1.11354 47.881 0 47.975Z" fill="#FFFFFF"/>
<path d="M20.1221 48.0005C22.5597 42.4492 24.8093 37.1833 27.2287 31.9965C27.5331 31.3441 28.6896 30.861 29.5231 30.7185C36.2398 29.5697 41.7212 26.3456 45.9108 21.0183C47.0047 19.6274 47.8665 17.992 48.5444 16.3492C50.1342 12.4965 49.8782 8.78084 46.9678 5.19615C50.296 3.41593 53.6291 2.25739 57.5923 2.30306C57.2852 3.11463 57.0956 3.6906 56.8538 4.24384C53.1744 12.6633 49.6703 21.1654 45.7566 29.4749C41.114 39.3318 33.4266 45.6095 22.5863 47.7509C21.9166 47.8832 21.2227 47.8929 20.1221 48.0005Z" fill="#FFFFFF"/>
</g>
<g clip-path="url(#clip1_396_55)">
<path d="M211.326 6.73219C209.481 6.64833 207.94 6.57827 205.856 6.48351C206.399 13.9551 206.907 20.958 207.407 27.8355C208.65 28.2913 209.441 28.5815 210.233 28.8717C210.217 28.9884 210.201 29.105 210.186 29.2216H200.718L200.653 28.867C201.508 28.5142 202.363 28.1615 203.805 27.5669C203.491 21.9249 203.17 16.1396 202.848 10.3542C202.64 10.3045 202.431 10.2549 202.222 10.2053C199.18 16.6063 196.137 23.0073 193.094 29.4083C192.792 29.4524 192.491 29.4965 192.189 29.5406C189.032 23.1111 185.875 16.6815 182.718 10.2519C182.539 10.2765 182.361 10.301 182.183 10.3255C181.862 16.0847 181.541 21.8439 181.228 27.4503C182.49 28.0886 183.264 28.4802 184.699 29.2061H176.487C176.464 29.0907 176.442 28.9752 176.419 28.8597C177.127 28.5575 177.835 28.2552 178.543 27.953C178.768 27.9591 178.993 27.9653 179.218 27.9714C179.675 21.1329 180.133 14.2944 180.586 7.53822C179.663 6.89113 179.033 6.44992 178.01 5.73291H184.147C187.101 11.7671 190.106 17.9064 193.383 24.6012C196.623 17.9552 199.632 11.7837 202.573 5.7525H218.068C218.081 5.87741 218.095 6.00232 218.108 6.12723C217.374 6.38786 216.639 6.64848 215.724 6.97326C215.515 7.4696 215.065 8.04582 215.064 8.62274C215.057 12.9714 214.823 17.353 215.281 21.6598C215.743 26.0001 219.46 28.2325 224.539 27.8876C229.677 27.5387 232.316 25.1464 232.461 20.5006C232.57 17.036 232.531 13.5646 232.455 10.0983C232.434 9.09807 232.059 8.10531 231.863 7.18709C230.765 6.79635 229.94 6.50288 229.115 6.20941L229.105 5.82595H234.23C234.302 6.38212 234.448 6.99221 234.451 7.60293C234.47 11.796 234.509 15.99 234.444 20.1822C234.373 24.7646 231.933 28.375 227.521 29.2886C224.59 29.8954 221.316 29.9157 218.397 29.2869C214.391 28.4239 211.974 25.4996 211.743 21.3054C211.549 17.7665 211.645 14.2125 211.582 10.6657C211.562 9.55424 211.441 8.44452 211.326 6.73219Z" fill="#FFFFFF"/>
<path d="M134.144 19.7218V27.7841C135.342 28.1646 136.388 28.4972 137.435 28.8298C137.442 28.9324 137.45 29.0349 137.457 29.1375H130.646V5.4646C134.638 5.23048 138.594 4.74335 142.46 6.09992C144.927 6.96588 146.648 8.58514 146.918 11.3342C147.192 14.133 145.971 16.1566 143.568 17.5544C143.219 17.7577 142.871 17.964 142.203 18.357C145.895 21.769 149.476 25.7898 153.152 27.9684C153.152 27.9684 154.182 28.6327 154.378 28.4525C154.132 28.1136 153.155 27.1402 152.889 26.8179C149.154 22.2988 148.665 17.2453 151.479 12.1858C154.465 6.81875 160.397 3.46052 165.747 4.10914C173.651 5.06739 178.467 13.3613 175.622 21.0816C173.358 27.2267 165.385 32.8339 157.85 30.268C157.392 30.112 156.885 29.9495 156.418 29.987C151.006 30.4217 147.024 27.9102 143.661 24.0541C143.023 23.323 142.229 22.7248 141.596 21.9905C139.676 19.7643 137.34 18.845 134.144 19.7218ZM161.774 6.85595C154.174 6.85108 149.57 14.0195 152.95 20.7224C154.97 24.7267 158.319 27.1888 162.789 27.954C169.032 29.0226 175.192 23.8572 174.582 18.1735C173.955 12.3368 167.757 6.8598 161.774 6.85595ZM134.083 18.3616C137.472 18.5445 140.64 18.8383 142.403 15.6467C143.735 13.2334 143.748 10.5547 141.982 8.34716C139.99 5.85871 137.093 5.92908 134.083 6.20194V18.3616Z" fill="#FFFFFF"/>
<path d="M280.557 17.9669C279.662 19.4857 278.834 21.049 277.858 22.516C273.278 29.4015 263.44 32.2048 255.969 28.5553C253.919 27.5538 252.251 25.7882 250.379 24.3507C247.846 32.0946 241.511 29.8909 235.361 28.9536C235.139 27.3695 234.89 25.596 234.641 23.8226C234.816 23.759 234.991 23.6955 235.166 23.632C235.488 24.1971 235.681 24.922 236.157 25.298C237.686 26.5068 239.171 28.0626 240.948 28.6046C243.599 29.4134 246.089 28.0287 246.868 25.967C247.82 23.4458 246.409 21.7619 244.558 20.402C242.464 18.864 240.195 17.5575 238.106 16.0135C235.043 13.7494 234.074 11.0751 235.199 8.51067C236.248 6.11999 239.643 4.55751 242.932 5.03913C244.684 5.29575 246.415 5.69816 248.476 6.09696C248.619 7.33457 248.786 8.77766 248.952 10.2208C248.779 10.2722 248.605 10.3236 248.432 10.375C248.019 9.82801 247.707 9.14637 247.174 8.76092C245.891 7.83192 244.604 6.74482 243.136 6.26914C241.238 5.6542 239.312 6.16882 238.29 8.07785C237.284 9.95708 238.131 11.6416 239.646 12.777C242.623 15.0077 245.75 17.0438 249.011 19.2957C248.77 13.4703 250.93 8.95314 256.398 6.36203C261.68 3.85874 266.927 5.22589 272.548 6.76692C272.628 8.20239 272.721 9.88497 272.829 11.8433C272.252 11.5664 271.935 11.5193 271.873 11.3696C270.087 7.0443 264.895 5.00478 259.595 6.59228C255.317 7.87381 252.524 12.405 252.789 17.51C253.058 22.6662 256.257 27.1452 260.624 28.4795C265.179 29.8708 269.818 28.3386 273.039 23.8864C275.113 21.0199 276.678 17.7916 278.441 14.709C279.925 12.1154 281.229 9.40869 282.878 6.9242C283.902 5.3814 285.996 3.27788 287.957 2.30963C287.957 2.30963 290.244 2.16563 290.408 2.30956C288.938 1.82548 285.996 4.97237 285.457 5.8503C283.813 9.90424 282.169 13.9582 280.525 18.0121L280.557 17.9669Z" fill="#FFFFFF"/>
<path d="M285.997 6.18236C286.514 6.81387 286.653 7.06816 286.937 7.78926C289.269 13.7241 291.533 19.6853 293.788 25.6493C294.401 27.2701 295.234 28.478 297.227 28.5568C300.156 28.6726 301.079 27.9154 301.098 24.9917C301.128 20.3143 301.11 15.6365 301.107 10.9589C301.105 8.43205 299.739 6.75963 297.272 5.94163V5.46987C300.862 5.39922 306.096 5.219 309.675 5.40153C311.322 5.48552 313.081 6.04112 314.527 6.84417C318.391 8.9904 318.687 14.0601 315.245 16.8249C314.571 17.3661 313.802 17.7915 312.787 18.4619C318.272 22.4008 321.337 29.4143 329.378 29.4384C325.385 30.1084 321.48 30.3099 318.162 27.5818C316.035 25.8323 314.025 23.9146 312.152 21.9002C310.131 19.7263 307.843 18.8629 304.634 19.7727C304.634 22.0324 304.322 24.4756 304.781 26.7681C304.914 27.4304 307.075 28.4522 308.546 28.4522V29.1682H287.142V28.861C288.29 28.562 291.268 28.8115 290.899 27.726C289.757 24.6132 288.84 21.9065 287.749 18.9323C285.901 18.9323 284.188 19.0208 282.492 18.8882C281.828 18.8361 281.202 18.2885 280.559 17.9666L280.526 18.0119C282.538 17.529 284.549 17.0461 286.72 16.5249C285.913 14.2681 285.096 12.3331 284.281 10.0554C284.716 8.71326 285.997 6.18236 285.997 6.18236ZM304.654 18.2043C309.28 18.8704 312.063 17.8863 313.236 15.3191C314.411 12.7502 313.861 9.28276 312.024 7.67247C310.193 6.06744 306.545 5.62726 304.654 6.76766V18.2043Z" fill="#FFFFFF"/>
<path d="M101.903 27.6687L98.8857 29.202H129.276V23.9459C128.459 24.5006 128.19 25.2354 127.732 25.827C127.21 26.5001 126.552 27.5207 125.896 27.5641C123.024 27.7546 120.131 27.6462 117.041 27.6462V18.13H124.844L126.486 21.012V13.2722L124.834 15.9556H117.039V7.34936H127.259L128.91 10.7591L129.27 10.6462V5.80469H109.854C112.216 6.62221 113.398 8.3224 113.402 10.9052C113.408 15.3402 113.418 19.7753 113.393 24.2102C113.387 25.3144 113.435 26.6207 113.203 27.4845C112.971 28.3483 111.977 28.6948 109.526 28.6948C107.075 28.6948 105.653 27.4845 105.653 27.4845L105.605 8.36148C105.605 8.36148 105.613 8.28097 106.095 7.3713C106.83 6.42498 107.59 6.56811 108.58 5.81251H99.0777L101.903 7.3713V27.6687Z" fill="#FFFFFF"/>
<path d="M87.3784 27.9544C88.9295 28.3105 90.0152 28.5597 91.1008 28.8089C91.0987 28.9257 91.0967 29.0425 91.0946 29.1593H80.6047C80.5724 29.0662 80.6371 29.0299 80.6047 28.9368C81.3641 28.6542 82.4134 28.3148 83.3988 27.948V6.66698C82.3203 6.66701 80.1151 6.66698 80.1151 6.66698C80.1151 6.66698 79.9173 5.70138 80.1156 5.69877C84.2687 5.64424 89.1781 5.19148 93.299 5.54093C97.346 5.88411 99.646 8.5404 99.6985 11.9405C99.7533 15.4929 97.4937 18.1355 93.5591 18.9673C92.2846 19.2368 90.9556 19.2552 89.4095 19.4133C91.4981 17.9611 93.8073 17.116 94.7395 15.4973C95.7046 13.8215 95.8231 11.3007 95.4301 9.32026C94.8755 6.52536 91.1689 5.42127 87.3784 6.46796V27.9544Z" fill="#FFFFFF"/>
<path d="M326.767 28.4754C324.478 27.9684 322.963 26.6983 322.963 26.6983V7.41963C321.944 6.88617 321.241 6.51831 319.89 5.81104H329.895C328.561 6.47683 327.741 6.88629 326.767 7.37236V28.4754Z" fill="#FFFFFF"/>
</g>
<path d="M90.9521 45.1543C90.9521 44.7246 90.8805 44.3415 90.7373 44.0049C90.5941 43.6683 90.3577 43.3675 90.0283 43.1025C89.7061 42.8304 89.2692 42.5798 88.7178 42.3506C88.1735 42.1143 87.4932 41.8815 86.6768 41.6523C85.8962 41.4303 85.1908 41.1868 84.5605 40.9219C83.9303 40.6569 83.3896 40.3525 82.9385 40.0088C82.4945 39.665 82.1543 39.264 81.918 38.8057C81.6816 38.3402 81.5635 37.7995 81.5635 37.1836C81.5635 36.582 81.6924 36.0342 81.9502 35.54C82.208 35.0459 82.5697 34.6198 83.0352 34.2617C83.5078 33.9036 84.0628 33.6279 84.7002 33.4346C85.3447 33.2412 86.0501 33.1445 86.8164 33.1445C87.9121 33.1445 88.8574 33.3522 89.6523 33.7676C90.4544 34.1829 91.0739 34.7451 91.5107 35.4541C91.9548 36.1559 92.1768 36.9437 92.1768 37.8174H90.8555C90.8555 37.137 90.6943 36.5319 90.3721 36.002C90.057 35.4648 89.5986 35.0459 88.9971 34.7451C88.4027 34.4372 87.6758 34.2832 86.8164 34.2832C85.957 34.2832 85.2337 34.4157 84.6465 34.6807C84.0664 34.9385 83.626 35.2858 83.3252 35.7227C83.0316 36.1523 82.8848 36.6322 82.8848 37.1621C82.8848 37.5345 82.9564 37.8783 83.0996 38.1934C83.2428 38.5013 83.4756 38.7913 83.7979 39.0635C84.1273 39.3285 84.5605 39.5791 85.0977 39.8154C85.6348 40.0446 86.2972 40.263 87.085 40.4707C87.9157 40.6999 88.6533 40.9541 89.2979 41.2334C89.9424 41.5127 90.4867 41.835 90.9307 42.2002C91.3747 42.5583 91.7113 42.9772 91.9404 43.457C92.1696 43.9368 92.2842 44.4954 92.2842 45.1328C92.2842 45.7702 92.1481 46.3431 91.876 46.8516C91.611 47.3529 91.235 47.779 90.748 48.1299C90.2682 48.4808 89.6989 48.7493 89.04 48.9355C88.3883 49.1217 87.6758 49.2148 86.9023 49.2148C86.2077 49.2148 85.5166 49.1253 84.8291 48.9463C84.1416 48.7673 83.5114 48.4915 82.9385 48.1191C82.3727 47.7396 81.918 47.2526 81.5742 46.6582C81.2376 46.0638 81.0693 45.3548 81.0693 44.5312H82.3799C82.3799 45.1901 82.5124 45.7451 82.7773 46.1963C83.0423 46.6475 83.3932 47.0127 83.8301 47.292C84.2741 47.5713 84.7611 47.7754 85.291 47.9043C85.8281 48.026 86.3652 48.0869 86.9023 48.0869C87.7259 48.0869 88.4385 47.9652 89.04 47.7217C89.6488 47.4782 90.1178 47.138 90.4473 46.7012C90.7839 46.2572 90.9521 45.7415 90.9521 45.1543ZM111.604 33.3594V49H110.293V33.3594H111.604ZM116.964 33.3594V34.498H104.944V33.3594H116.964ZM141.977 40.3418V42.0176C141.977 43.1133 141.834 44.1051 141.547 44.9932C141.268 45.874 140.86 46.6296 140.323 47.2598C139.793 47.89 139.155 48.3734 138.411 48.71C137.666 49.0465 136.828 49.2148 135.897 49.2148C134.988 49.2148 134.157 49.0465 133.405 48.71C132.66 48.3734 132.019 47.89 131.482 47.2598C130.945 46.6296 130.53 45.874 130.236 44.9932C129.942 44.1051 129.795 43.1133 129.795 42.0176V40.3418C129.795 39.2461 129.939 38.2578 130.225 37.377C130.519 36.4889 130.934 35.7298 131.471 35.0996C132.008 34.4694 132.649 33.986 133.394 33.6494C134.139 33.3128 134.966 33.1445 135.876 33.1445C136.807 33.1445 137.644 33.3128 138.389 33.6494C139.134 33.986 139.775 34.4694 140.312 35.0996C140.849 35.7298 141.261 36.4889 141.547 37.377C141.834 38.2578 141.977 39.2461 141.977 40.3418ZM140.667 42.0176V40.3203C140.667 39.3965 140.559 38.5658 140.344 37.8281C140.137 37.0905 139.825 36.4603 139.41 35.9375C139.002 35.4147 138.5 35.0137 137.906 34.7344C137.311 34.4551 136.635 34.3154 135.876 34.3154C135.138 34.3154 134.475 34.4551 133.888 34.7344C133.301 35.0137 132.8 35.4147 132.384 35.9375C131.976 36.4603 131.661 37.0905 131.439 37.8281C131.224 38.5658 131.117 39.3965 131.117 40.3203V42.0176C131.117 42.9486 131.224 43.7865 131.439 44.5312C131.661 45.2689 131.98 45.9027 132.395 46.4326C132.81 46.9554 133.312 47.3564 133.899 47.6357C134.493 47.915 135.159 48.0547 135.897 48.0547C136.663 48.0547 137.34 47.915 137.927 47.6357C138.515 47.3564 139.012 46.9554 139.42 46.4326C139.829 45.9027 140.137 45.2689 140.344 44.5312C140.559 43.7865 140.667 42.9486 140.667 42.0176ZM156.506 33.3594H161.587C162.668 33.3594 163.606 33.5348 164.401 33.8857C165.196 34.2367 165.808 34.7559 166.238 35.4434C166.675 36.1237 166.893 36.9616 166.893 37.957C166.893 38.6947 166.736 39.3643 166.421 39.9658C166.113 40.5674 165.687 41.0723 165.142 41.4805C164.598 41.8815 163.968 42.1572 163.252 42.3076L162.79 42.4795H157.365L157.344 41.3516H161.888C162.704 41.3516 163.384 41.194 163.929 40.8789C164.473 40.5638 164.881 40.1484 165.153 39.6328C165.432 39.11 165.572 38.5514 165.572 37.957C165.572 37.248 165.418 36.6357 165.11 36.1201C164.809 35.5973 164.362 35.1963 163.767 34.917C163.173 34.6377 162.446 34.498 161.587 34.498H157.827V49H156.506V33.3594ZM166.163 49L162.113 42.0068L163.531 41.9961L167.57 48.8604V49H166.163ZM181.068 33.3594L185.805 41.8779L190.585 33.3594H192.11L186.471 43.1025V49H185.15V43.1025L179.499 33.3594H181.068ZM211.054 33.3594V49H209.744V33.3594H211.054ZM216.414 33.3594V34.498H204.394V33.3594H216.414ZM234.456 34.2939L229.042 49H227.667L233.575 33.3594H234.531L234.456 34.2939ZM239.376 49L233.951 34.2939L233.876 33.3594H234.832L240.751 49H239.376ZM238.409 43.4785V44.6172H230.105V43.4785H238.409ZM255.902 33.3594V49H254.581V33.3594H255.902ZM280.421 47.8721V49H272.311V47.8721H280.421ZM272.698 33.3594V49H271.376V33.3594H272.698ZM305.037 40.3418V42.0176C305.037 43.1133 304.893 44.1051 304.607 44.9932C304.328 45.874 303.919 46.6296 303.382 47.2598C302.852 47.89 302.215 48.3734 301.47 48.71C300.725 49.0465 299.888 49.2148 298.957 49.2148C298.047 49.2148 297.216 49.0465 296.464 48.71C295.72 48.3734 295.079 47.89 294.542 47.2598C294.004 46.6296 293.589 45.874 293.295 44.9932C293.002 44.1051 292.855 43.1133 292.855 42.0176V40.3418C292.855 39.2461 292.998 38.2578 293.285 37.377C293.578 36.4889 293.994 35.7298 294.531 35.0996C295.068 34.4694 295.709 33.986 296.454 33.6494C297.198 33.3128 298.026 33.1445 298.935 33.1445C299.866 33.1445 300.704 33.3128 301.449 33.6494C302.194 33.986 302.834 34.4694 303.372 35.0996C303.909 35.7298 304.32 36.4889 304.607 37.377C304.893 38.2578 305.037 39.2461 305.037 40.3418ZM303.726 42.0176V40.3203C303.726 39.3965 303.619 38.5658 303.404 37.8281C303.196 37.0905 302.885 36.4603 302.469 35.9375C302.061 35.4147 301.56 35.0137 300.965 34.7344C300.371 34.4551 299.694 34.3154 298.935 34.3154C298.197 34.3154 297.535 34.4551 296.948 34.7344C296.361 35.0137 295.859 35.4147 295.444 35.9375C295.036 36.4603 294.721 37.0905 294.499 37.8281C294.284 38.5658 294.176 39.3965 294.176 40.3203V42.0176C294.176 42.9486 294.284 43.7865 294.499 44.5312C294.721 45.2689 295.039 45.9027 295.455 46.4326C295.87 46.9554 296.371 47.3564 296.959 47.6357C297.553 47.915 298.219 48.0547 298.957 48.0547C299.723 48.0547 300.4 47.915 300.987 47.6357C301.574 47.3564 302.072 46.9554 302.48 46.4326C302.888 45.9027 303.196 45.2689 303.404 44.5312C303.619 43.7865 303.726 42.9486 303.726 42.0176ZM319.565 33.3594H324.646C325.728 33.3594 326.666 33.5348 327.461 33.8857C328.256 34.2367 328.868 34.7559 329.298 35.4434C329.735 36.1237 329.953 36.9616 329.953 37.957C329.953 38.6947 329.795 39.3643 329.48 39.9658C329.172 40.5674 328.746 41.0723 328.202 41.4805C327.658 41.8815 327.027 42.1572 326.311 42.3076L325.849 42.4795H320.425L320.403 41.3516H324.947C325.763 41.3516 326.444 41.194 326.988 40.8789C327.532 40.5638 327.941 40.1484 328.213 39.6328C328.492 39.11 328.632 38.5514 328.632 37.957C328.632 37.248 328.478 36.6357 328.17 36.1201C327.869 35.5973 327.421 35.1963 326.827 34.917C326.233 34.6377 325.506 34.498 324.646 34.498H320.887V49H319.565V33.3594ZM329.222 49L325.173 42.0068L326.591 41.9961L330.63 48.8604V49H329.222Z" fill="#CCCCCC"/>
<defs>
<clipPath id="clip0_396_55">
<rect width="78" height="46" fill="white" transform="translate(0 2)"/>
</clipPath>
<clipPath id="clip1_396_55">
<rect width="250" height="33" fill="white" transform="translate(80.1133)"/>
</clipPath>
</defs>
</svg>
